# xmcd
# Copyright (C) 1995-1998 Ti Kan
#
# Track frame offsets:
#       150
#       9068
#       29407
#       43236
#       61519
#       74674
#       93815
#       110813
#       134335
#       147556
#       163434
#       181433
#       195827
#       216026
#       220801
#       237734
#       257375
#       270216
#       288824
#
# Disc length: 4152 seconds
#
# Revision: 0
# Processed by: cddbd v1.5.2PL0 Copyright (c) Steve Scherf et al.
# Submitted via: CD-Import v1.0
#
DISCID=16103613
DTITLE=Eigänabou - Jahräsärnti
DYEAR=2009
DGENRE=
TTITLE0=Intro
TTITLE1=Ächti Headz
TTITLE2=Figg Druf
TTITLE3=Troim Wiiter
TTITLE4=Radschläg
TTITLE5=Hüt
TTITLE6=Gschichtlistund 1
TTITLE7=Enta Da Abou
TTITLE8=Säg Wieso
TTITLE9=Priivä Scheiss
TTITLE10=Lami La Gleitä
TTITLE11=Im Hüttli
TTITLE12=Sachä Giz
TTITLE13=Hip Hop Im Härz
TTITLE14=Wörter Statt Waffä
TTITLE15=Näbäd Dä Schuä
TTITLE16=Beatskit
TTITLE17=Was Wär
TTITLE18=Jahräsärnti
EXTD=
EXTT0=
EXTT1=
EXTT2=
EXTT3=
EXTT4=
EXTT5=
EXTT6=
EXTT7=
EXTT8=
EXTT9=
EXTT10=
EXTT11=
EXTT12=
EXTT13=
EXTT14=
EXTT15=
EXTT16=
EXTT17=
EXTT18=
PLAYORDER=
